<?xml version="1.0" standalone="no"?><svg xmlns="http://www.w3.org/2000/svg" viewBox="0 0 1440 320"><path fill="#0099ff" fill-opacity="1" d="M0,288L30,288C60,288,120,288,180,266.7C240,245,300,203,360,202.7C420,203,480,245,540,234.7C600,224,660,160,720,160C780,160,840,224,900,261.3C960,299,1020,309,1080,304C1140,299,1200,277,1260,245.3C1320,213,1380,171,1410,149.3L1440,128L1440,320L1410,320C1380,320,1320,320,1260,320C1200,320,1140,320,1080,320C1020,320,960,320,900,320C840,320,780,320,720,320C660,320,600,320,540,320C480,320,420,320,360,320C300,320,240,320,180,320C120,320,60,320,30,320L0,320Z"></path></svg>